  0
SECTION
  2
HEADER
  9
$ACADVER
  1
AC1009
  9
$INSBASE
 10
0.0
 20
0.0
 30
0.0
  9
$EXTMIN
 10
0.0
 20
0.0
 30
0.0
  9
$EXTMAX
 10
0.0
 20
0.0
 30
0.0
  0
ENDSEC
  0
SECTION
  2
TABLES
  0
TABLE
  2
VPORT
 70
0
  0
ENDTAB
  0
TABLE
  2
LTYPE
 70
1
  0
LTYPE
  2
CONTINUOUS
 70
0
  3
Solid line
 72
65
 73
0
 40
0.0
  0
ENDTAB
  0
TABLE
  2
LAYER
 70
1
  0
LAYER
  2
0
 70
64
 62
7
  6
continuous
  0
ENDTAB
  0
TABLE
  2
STYLE
 70
1
  0
STYLE
  2
STANDARD
 70
0
 40
0
 41
1.0
 50
0.0
 71
0
 42
1
 3
ARIAL.TTF
 4

  0
ENDTAB
  0
TABLE
  2
VIEW
 70
0
  0
ENDTAB
  0
ENDSEC
  0
SECTION
  2
BLOCKS
  0
BLOCK
  8
0
  2
SKETCH
 70
0
 10
0.0
 20
0.0
 30
0.0
  3
SKETCH
  0
POLYLINE
  8
0
 62
7
 70
1
 66
1
 10
0.0
 20
0.0
 30
0.0
  0
VERTEX
  8
0
 10
10.0
 20
10.0
 30
0.0
  0
VERTEX
  8
0
 10
262.0
 20
10.0
 30
0.0
  0
VERTEX
  8
0
 10
262.0
 20
32.0
 30
0.0
  0
VERTEX
  8
0
 10
284.0
 20
32.0
 30
0.0
  0
VERTEX
  8
0
 10
284.0
 20
253.5
 30
0.0
  0
VERTEX
  8
0
 10
263.5
 20
253.5
 30
0.0
  0
VERTEX
  8
0
 10
263.5
 20
315.0
 30
0.0
  0
VERTEX
  8
0
 10
284.0
 20
315.0
 30
0.0
  0
VERTEX
  8
0
 10
284.0
 20
429.15
 30
0.0
  0
VERTEX
  8
0
 10
263.5
 20
429.15
 30
0.0
  0
VERTEX
  8
0
 10
263.5
 20
449.65
 30
0.0
  0
VERTEX
  8
0
 10
144.9999999999876
 20
449.65
 30
0.0
  0
VERTEX
  8
0
 10
144.9999999999876
 20
440.65000000000003
 30
0.0
 42
-1.0000016587307694
  0
VERTEX
  8
0
 10
127.00000000001238
 20
440.65000000000003
 30
0.0
  0
VERTEX
  8
0
 10
127.00000000001238
 20
449.65
 30
0.0
  0
VERTEX
  8
0
 10
8.5
 20
449.65
 30
0.0
  0
VERTEX
  8
0
 10
8.5
 20
429.15
 30
0.0
  0
VERTEX
  8
0
 10
-12.0
 20
429.15
 30
0.0
  0
VERTEX
  8
0
 10
-12.0
 20
315.0
 30
0.0
  0
VERTEX
  8
0
 10
8.5
 20
315.0
 30
0.0
  0
VERTEX
  8
0
 10
8.5
 20
253.5
 30
0.0
  0
VERTEX
  8
0
 10
-12.0
 20
253.5
 30
0.0
  0
VERTEX
  8
0
 10
-12.0
 20
32.0
 30
0.0
  0
VERTEX
  8
0
 10
10.0
 20
32.0
 30
0.0
  0
SEQEND
  8
0
  0
POLYLINE
  8
0
 62
7
 70
1
 66
1
 10
0.0
 20
0.0
 30
0.0
  0
VERTEX
  8
0
 10
20.5
 20
269.0
 30
0.0
  0
VERTEX
  8
0
 10
23.0
 20
269.0
 30
0.0
 42
-0.41421356237309376
  0
VERTEX
  8
0
 10
26.5
 20
265.5
 30
0.0
  0
VERTEX
  8
0
 10
26.5
 20
264.5
 30
0.0
 42
-0.41421356237309376
  0
VERTEX
  8
0
 10
23.0
 20
261.0
 30
0.0
  0
VERTEX
  8
0
 10
20.5
 20
261.0
 30
0.0
 42
-0.41421356237309737
  0
VERTEX
  8
0
 10
17.0
 20
264.5
 30
0.0
  0
VERTEX
  8
0
 10
17.0
 20
265.5
 30
0.0
 42
-0.41421356237309725
  0
SEQEND
  8
0
  0
CIRCLE
  8
0
 62
7
 10
220.0
 20
386.0
 30
0.0
 40
40.2
  0
CIRCLE
  8
0
 62
7
 10
255.75
 20
349.9
 30
0.0
 40
2.5
  0
CIRCLE
  8
0
 62
7
 10
184.25
 20
349.9
 30
0.0
 40
2.5
  0
CIRCLE
  8
0
 62
7
 10
184.1442531844575
 20
421.4
 30
0.0
 40
2.5
  0
CIRCLE
  8
0
 62
7
 10
255.6442531844575
 20
421.4
 30
0.0
 40
2.5
  0
ENDBLK
  0
ENDSEC
  0
SECTION
  2
ENTITIES
  0
INSERT
  2
SKETCH
  8
0
 62
7
 10
0.0
 20
0.0
 30
0.0
  0
ENDSEC
  0
EOF
